<?xml version="1.0" standalone="no"?>
<!DOCTYPE svg PUBLIC "-//W3C//DTD SVG 20010904//EN"
 "http://www.w3.org/TR/2001/REC-SVG-20010904/DTD/svg10.dtd">
<svg version="1.0" xmlns="http://www.w3.org/2000/svg"
 width="863.000000pt" height="1280.000000pt" viewBox="0 0 863.000000 1280.000000"
 preserveAspectRatio="xMidYMid meet">
<metadata>
Created by potrace 1.15, written by Peter Selinger 2001-2017
</metadata>
<g transform="translate(0.000000,1280.000000) scale(0.100000,-0.100000)"
fill="#000000" stroke="none">
<path d="M7904 12780 c-12 -5 -31 -22 -43 -39 -20 -27 -28 -31 -72 -31 -41 0
-49 3 -49 19 0 10 -7 24 -15 31 -13 11 -14 8 -9 -19 l7 -31 -184 0 c-528 0
-1049 -72 -1528 -212 l-144 -42 -61 22 c-83 29 -183 52 -231 52 -62 0 -123
-33 -140 -75 -9 -19 -15 -38 -14 -42 3 -20 -4 -21 -43 -3 -111 48 -304 63
-446 34 -111 -23 -191 -64 -250 -129 -60 -66 -82 -124 -82 -219 0 -108 32
-205 113 -349 21 -38 37 -70 35 -71 -2 -1 -42 -34 -90 -74 -73 -59 -84 -71
-65 -74 19 -3 22 -8 20 -41 -8 -124 -328 -667 -571 -967 l-67 -83 -105 -33
c-221 -71 -466 -217 -638 -378 -98 -93 -155 -170 -208 -279 -21 -44 -52 -91
-73 -109 -51 -45 -140 -83 -268 -113 -62 -15 -113 -31 -113 -36 0 -5 16 -17
35 -26 29 -14 35 -22 35 -49 0 -56 -70 -142 -371 -454 -159 -166 -316 -336
-348 -379 -165 -216 -356 -531 -496 -816 -282 -575 -438 -1157 -507 -1890 -18
-190 -18 -1040 0 -1270 17 -217 58 -636 76 -785 l14 -114 -28 -33 c-34 -38
-39 -62 -44 -204 -4 -103 -12 -135 -48 -180 -28 -34 -108 -87 -174 -114 -107
-46 -122 -79 -28 -62 92 16 90 2 -25 -123 -350 -385 -558 -752 -637 -1125 -27
-124 -25 -364 4 -479 112 -450 519 -738 1134 -805 140 -16 453 -13 619 4 297
31 630 103 979 211 669 206 982 267 1455 281 726 21 1381 -160 1947 -536 183
-122 356 -262 531 -430 128 -124 136 -124 94 -9 -78 215 -318 494 -612 713
-380 284 -851 486 -1370 589 -292 58 -664 85 -913 67 -315 -23 -499 -53 -1197
-191 -842 -167 -966 -185 -1295 -185 -267 0 -341 11 -468 71 -127 61 -245 204
-311 379 -30 80 -34 101 -34 190 -1 117 16 185 74 293 179 336 663 642 1254
792 245 62 342 75 580 75 147 0 216 -4 231 -12 16 -9 25 -30 34 -78 28 -147
99 -171 327 -109 137 36 150 30 204 -101 19 -48 46 -93 66 -112 57 -55 189
-75 623 -93 335 -13 497 -45 618 -122 135 -84 177 -92 394 -73 114 9 128 3
128 -56 0 -64 20 -74 140 -69 63 2 80 16 80 67 0 40 6 40 110 13 95 -25 136
-26 148 -2 5 9 7 22 5 29 -3 8 11 10 50 6 66 -7 101 1 127 27 20 20 20 20 -9
65 -16 25 -44 83 -62 128 -67 170 -105 227 -150 227 -9 0 -24 17 -34 39 -47
105 -62 108 -704 121 -452 9 -499 14 -651 65 -41 14 -99 39 -129 56 l-53 31
48 49 c27 28 64 59 82 71 44 27 204 68 268 68 61 0 159 -32 279 -92 226 -113
396 -135 537 -68 44 20 48 21 72 4 19 -12 39 -15 71 -12 37 5 47 2 66 -19 13
-13 47 -35 76 -49 48 -24 59 -26 135 -20 46 4 111 6 146 6 62 -1 64 0 75 29 6
17 17 31 24 31 7 0 19 10 28 23 14 21 13 31 -9 108 -14 46 -30 112 -36 146 -7
34 -20 68 -29 76 -9 8 -45 20 -81 26 -36 7 -140 32 -231 57 -189 51 -310 74
-554 104 -250 31 -314 48 -392 106 l-31 24 63 187 c98 287 155 556 155 729 0
61 21 121 140 392 101 234 122 301 124 397 1 74 -2 84 -31 130 -62 99 -50 126
24 53 34 -33 45 -39 56 -30 19 16 40 121 82 417 87 599 190 980 353 1307 l67
133 63 7 c83 9 164 48 297 142 175 124 248 152 425 162 88 6 111 4 138 -10 37
-19 40 -29 45 -151 5 -117 22 -151 132 -252 47 -43 90 -79 94 -81 5 -2 12 6
16 17 4 14 -6 42 -29 84 -20 35 -36 77 -36 92 0 41 38 92 85 115 l40 19 78
-26 c69 -23 80 -30 97 -63 27 -54 53 -202 45 -264 -17 -138 -56 -218 -176
-362 -44 -53 -79 -100 -79 -105 0 -20 34 -22 66 -4 19 10 85 71 146 135 62 64
128 127 147 140 l34 23 -5 -48 c-4 -29 -24 -82 -53 -137 -51 -99 -55 -133 -15
-133 22 0 34 18 108 169 49 97 87 165 93 159 4 -4 16 -73 24 -153 9 -79 20
-150 24 -158 5 -10 15 2 31 40 21 45 24 69 24 158 -1 132 -30 236 -114 405
-111 224 -235 391 -350 473 -41 29 -93 67 -114 84 -44 36 -50 31 59 57 28 7
104 32 170 56 258 93 367 96 470 13 136 -107 156 -119 207 -117 43 2 52 -1 83
-31 54 -53 74 -112 87 -265 7 -74 15 -140 19 -146 11 -18 45 -1 58 29 7 15 17
97 22 182 11 192 13 204 47 195 75 -19 132 -115 177 -300 15 -60 31 -114 35
-118 4 -4 16 5 26 20 26 38 24 163 -5 308 -29 154 -30 152 26 109 48 -37 115
-74 133 -74 20 0 9 29 -39 101 -65 99 -117 156 -214 235 -155 124 -235 164
-532 265 -479 161 -784 282 -1025 404 -117 60 -270 155 -333 208 l-27 23 30
60 c44 89 63 147 150 474 43 162 98 351 121 420 75 227 180 407 272 466 28 18
55 47 72 79 124 223 341 451 623 653 108 78 108 78 193 52 46 -14 84 -19 105
-16 62 12 151 143 161 240 6 52 -23 92 -73 102 -19 3 -36 10 -39 14 -5 9 59
54 93 64 43 14 56 48 48 137 l-7 80 61 67 c34 37 71 84 83 106 l22 38 75 -6
c116 -10 248 -16 220 -10 -14 3 -83 13 -155 23 l-130 17 2 30 c5 63 12 73 81
108 80 42 78 45 -7 10 -35 -14 -65 -23 -68 -21 -2 3 -7 39 -10 81 -6 73 -5 76
25 110 43 49 72 134 72 212 0 80 -18 119 -62 133 -41 13 -218 31 -303 31 -59
0 -63 1 -58 21 3 12 20 30 37 40 31 19 19 25 -20 9z"/>
</g>
</svg>
